<mxfile host="app.diagrams.net" modified="2023-10-06T08:53:06.751Z" agent="Mozilla/5.0 (Windows NT 10.0; Win64; x64) AppleWebKit/537.36 (KHTML, like Gecko) Chrome/117.0.0.0 Safari/537.36 Edg/117.0.2045.47" version="22.0.3" etag="60-Z4_3LvmyTZhf0syzu" type="github">
  <diagram name="第 1 页" id="XNt598A_ILT5u4kQWhQA">
    <mxGraphModel>
      <root>
        <mxCell id="0" />
        <mxCell id="1" parent="0" />
      </root>
    </mxGraphModel>
  </diagram>
</mxfile>
